<svg width="82" height="54" viewBox="0 0 82 54" fill="none" xmlns="http://www.w3.org/2000/svg">
<g id="chanel-2" clip-path="url(#clip0_98_705)">
<path id="Vector" d="M5.86544 53.9958C5.83059 53.9918 5.71245 53.9797 5.60291 53.9687C4.60298 53.8688 3.53558 53.4621 2.69651 52.8613C1.43848 51.9605 0.551974 50.6487 0.1822 49.141C-0.0143009 48.3399 -0.0533549 47.4423 0.0723169 46.6165C0.409282 44.4026 1.88017 42.5062 3.9206 41.655C4.42982 41.4426 4.93519 41.3083 5.53049 41.2271C5.86048 41.1822 6.66414 41.1819 6.99705 41.2267C7.70305 41.3217 8.30144 41.4988 8.91625 41.7947C9.59276 42.1203 10.0609 42.4555 10.6276 43.0201C11.123 43.5137 11.4289 43.9245 11.7836 44.5726L11.8591 44.7104L11.5917 44.9071C11.2233 45.1781 10.3593 45.7913 10.0779 45.9814L9.84544 46.1385L9.74982 45.9318C9.63159 45.6762 9.54742 45.5247 9.41112 45.3223C8.8665 44.5133 7.99802 43.9354 7.05137 43.7522C6.55045 43.6553 5.93377 43.6661 5.43996 43.7804C4.92141 43.9005 4.3583 44.1699 3.92813 44.5037C3.75473 44.6382 3.4356 44.953 3.29519 45.128C2.53756 46.0723 2.25849 47.2753 2.51833 48.4769C2.60829 48.8929 2.84115 49.4364 3.08408 49.7974C3.72701 50.7528 4.71251 51.3649 5.82876 51.5022C6.02609 51.5264 6.50144 51.5264 6.69878 51.5022C7.68733 51.3806 8.60075 50.8698 9.2249 50.0894C9.40871 49.8595 9.53681 49.6606 9.68291 49.378C9.74693 49.2542 9.80465 49.1529 9.81118 49.1529C9.81772 49.1529 10.2728 49.4724 10.8226 49.8629L11.8221 50.5728L11.7208 50.7633C11.5106 51.1587 11.149 51.6557 10.8122 52.0121C10.2385 52.6194 9.67959 53.032 8.95245 53.3854C8.32442 53.6905 7.65894 53.8852 6.95177 53.9705C6.79322 53.9897 5.97817 54.0086 5.86544 53.9958ZM14.4113 47.5322V41.3102H16.8375V45.7763H23.1745V41.3102H25.6007V53.7542H23.1745V48.2795H16.8375V53.7542H14.4113V47.5322ZM28.0518 52.6511C28.3223 52.0444 29.57 49.2446 30.8245 46.4292L33.1055 41.3102L34.8074 41.3104L36.5094 41.3106L39.2667 47.4558C40.7832 50.8357 42.0395 53.6355 42.0586 53.6776L42.0932 53.7542H39.1881L38.6273 52.5206L38.0664 51.2872L34.82 51.2916L31.5736 51.296L31.0191 52.5251L30.4645 53.7542H27.5601L28.0518 52.6511ZM37.0403 48.7767C37.0301 48.7328 34.8259 43.8324 34.8165 43.8325C34.8098 43.8326 32.7165 48.6918 32.683 48.785C32.6793 48.7953 33.5164 48.8018 34.8616 48.8018C36.7198 48.8018 37.0452 48.798 37.0403 48.7767ZM44.0504 47.5322V41.3102L45.7569 41.3106L47.4633 41.311L50.1339 45.0417L52.8045 48.7725L52.8091 45.0413L52.8137 41.3102H55.2579V53.7545L54.2771 53.7498L53.2964 53.7451L49.9091 49.0681C48.0461 46.4957 46.5157 44.3907 46.5083 44.3904C46.5008 44.39 46.4947 46.4967 46.4947 49.0719V53.7542H44.0504V47.5322ZM59.6756 47.5322V41.3102H68.4207V43.8134H62.1199V46.2986H67.95V48.8018H62.1199V51.287H69.326V53.7542H59.6756V47.5322ZM72.748 47.5322V41.3102H75.1922V51.287H82V53.7542H72.748V47.5322ZM30.861 38.1454C28.2495 38.0252 25.3414 37.2366 22.997 36.0126C21.1972 35.073 19.7707 34.0216 18.2763 32.5329C17.1059 31.367 16.2424 30.293 15.5114 29.0941L15.1914 28.5693L15.6454 28.3298C16.5299 27.8632 20.5623 25.8095 20.5939 25.8095C20.6116 25.8095 20.7782 26.035 20.9641 26.3106C23.0655 29.4259 26.3529 31.4524 30.2 32.004C30.8726 32.1004 32.8949 32.085 33.6273 31.9779C34.4422 31.8587 35.4197 31.6377 36.0405 31.4322C36.0809 31.4188 36.0037 31.2942 35.8261 31.0859C34.451 29.4737 33.1974 27.2608 32.4922 25.2007C31.2165 21.4743 31.1257 17.4742 32.2315 13.7158C32.9181 11.3819 34.0999 9.1166 35.5965 7.26535C35.8194 6.98955 36.0019 6.7462 36.0019 6.72461C36.0019 6.65115 34.8336 6.34186 34.0679 6.21259C32.885 6.01289 31.033 5.98813 29.9639 6.15772C28.165 6.44308 26.3391 7.1132 24.9123 8.01168C23.3223 9.01296 21.9964 10.2997 20.9383 11.8683L20.4711 12.5609L19.8765 12.2503C19.5494 12.0796 18.3344 11.4533 17.1765 10.8587C16.0186 10.264 15.0676 9.77435 15.0632 9.77049C15.0448 9.75434 15.7697 8.60754 16.0681 8.1808C16.9741 6.88514 18.5828 5.16921 19.7714 4.23078C22.8794 1.77693 26.3346 0.394949 30.2245 0.0498143C30.9461 -0.0142242 32.7353 -0.0147825 33.4314 0.0487878C35.9011 0.274291 38.018 0.86989 40.2051 1.95442L41.2503 2.47274L41.6005 2.27456C42.1659 1.95453 43.1705 1.49277 43.9335 1.20218C46.0743 0.386917 48.2302 -0.00114999 50.6123 2.55956e-06C52.2757 0.000812946 53.6634 0.163377 55.1699 0.533903C58.5733 1.37098 61.4756 2.97637 63.9763 5.40499C65.332 6.72164 66.3945 8.06596 67.2523 9.55012L67.3823 9.77507L65.2665 10.8608C64.1028 11.4579 62.8854 12.0848 62.5613 12.2538L61.9719 12.5612L61.5264 11.8928C59.3283 8.59477 55.7328 6.44766 51.7972 6.08293C50.6321 5.97495 48.9021 6.07437 47.8504 6.30976C47.3092 6.43091 46.4305 6.6806 46.4308 6.71319C46.4309 6.73023 46.5747 6.91948 46.7502 7.13377C49.0055 9.88618 50.4137 13.2413 50.8687 16.9464C50.9773 17.8308 50.9918 20.0886 50.8945 20.964C50.4835 24.6611 49.0781 28.073 46.8346 30.8196C46.326 31.4423 46.3478 31.3992 46.5109 31.4619C46.5879 31.4915 46.9483 31.5907 47.3119 31.6823C49.1595 32.1479 51.1484 32.2137 53.0158 31.8709C56.4123 31.2475 59.4713 29.2496 61.4388 26.3695C61.6217 26.1017 61.787 25.8646 61.806 25.8426C61.8249 25.8206 62.2785 26.0211 62.8138 26.288C63.8743 26.8167 67.196 28.5264 67.2317 28.5618C67.291 28.6209 66.2324 30.1839 65.5831 30.9958C64.9685 31.7645 63.3573 33.3651 62.5876 33.9718C59.8059 36.1644 56.6842 37.5051 53.2457 37.9837C49.2977 38.5333 45.1166 37.7973 41.7147 35.9539L41.2339 35.6934L40.6376 36.0072C37.6829 37.5621 34.2937 38.3033 30.861 38.1454ZM41.891 27.3435C43.5375 25.3163 44.5649 22.8572 44.8181 20.3372C44.9031 19.4914 44.8526 17.7686 44.7202 16.9985C44.3561 14.8793 43.5768 13.0629 42.3198 11.4031C42.0831 11.0906 41.7384 10.6727 41.5538 10.4746L41.2182 10.1144L40.9068 10.4502C40.4963 10.893 39.8123 11.7962 39.4675 12.3507C37.7168 15.1663 37.1452 18.6254 37.8866 21.9177C38.3531 23.9895 39.4258 26.0766 40.8713 27.7251L41.2041 28.1047L41.3498 27.9676C41.4299 27.8922 41.6735 27.6113 41.891 27.3435Z" fill="black"/>
</g>
<defs>
<clipPath id="clip0_98_705">
<rect width="82" height="54" fill="white"/>
</clipPath>
</defs>
</svg>
