<svg width="82" height="82" viewBox="0 0 82 82" fill="none" xmlns="http://www.w3.org/2000/svg">
<g id="nike-4">
<g id="Group">
<path id="Vector" fill-rule="evenodd" clip-rule="evenodd" d="M18.1827 30.4069C13.9793 35.3433 9.94895 41.465 9.90853 46.0407C9.89279 47.7623 10.4424 49.2653 11.7608 50.4037C13.6581 52.0432 15.7485 52.6213 17.8288 52.6247C20.8688 52.629 23.8874 51.4025 26.251 50.4568C30.2316 48.865 74.2328 29.7569 74.2328 29.7569C74.6574 29.5442 74.5778 29.2792 74.0465 29.4115C73.8321 29.4651 26.1442 42.3885 26.1442 42.3885C25.2409 42.644 24.3076 42.7776 23.3689 42.7859C19.704 42.8076 16.4428 40.7733 16.4692 36.4864C16.4794 34.809 16.9929 32.7862 18.1827 30.4069Z" fill="#EFF0F3"/>
</g>
</g>
</svg>
