<svg width="83" height="82" viewBox="0 0 83 82" fill="none" xmlns="http://www.w3.org/2000/svg">
<g id="nike-4">
<g id="Group">
<path id="Vector" fill-rule="evenodd" clip-rule="evenodd" d="M18.3824 30.4069C14.179 35.3433 10.1487 41.465 10.1082 46.0407C10.0925 47.7623 10.6421 49.2653 11.9605 50.4037C13.8578 52.0432 15.9482 52.6213 18.0285 52.6247C21.0685 52.629 24.0872 51.4025 26.4507 50.4568C30.4313 48.865 74.4325 29.7569 74.4325 29.7569C74.8571 29.5442 74.7775 29.2792 74.2462 29.4115C74.0318 29.4651 26.3439 42.3885 26.3439 42.3885C25.4407 42.644 24.5073 42.7776 23.5686 42.7859C19.9037 42.8076 16.6425 40.7733 16.6689 36.4864C16.6791 34.809 17.1926 32.7862 18.3824 30.4069Z" fill="black"/>
</g>
</g>
</svg>
