<svg width="120" height="32" viewBox="0 0 120 32" fill="none" xmlns="http://www.w3.org/2000/svg">
<path d="M51.5637 26.6667C49.9031 26.6667 48.6472 26.1944 47.7961 25.25C46.9451 24.2846 46.5195 22.9099 46.5195 21.1259V19.8667H49.7578V21.3778C49.7578 22.8049 50.3494 23.5185 51.5326 23.5185C52.1138 23.5185 52.5497 23.3506 52.8403 23.0148C53.1517 22.658 53.3074 22.0914 53.3074 21.3148C53.3074 20.3914 53.0998 19.5833 52.6846 18.8907C52.2695 18.1772 51.5014 17.3272 50.3805 16.3407C48.969 15.0815 47.983 13.9481 47.4225 12.9407C46.862 11.9123 46.5818 10.758 46.5818 9.47778C46.5818 7.7358 47.0177 6.39259 47.8896 5.44815C48.7614 4.48272 50.0276 4 51.6883 4C53.3281 4 54.5632 4.48272 55.3936 5.44815C56.2446 6.39259 56.6702 7.75679 56.6702 9.54074V10.4537H53.4319V9.32037C53.4319 8.56482 53.2866 8.01914 52.996 7.68333C52.7054 7.32654 52.2799 7.14815 51.7194 7.14815C50.5777 7.14815 50.0069 7.85123 50.0069 9.25741C50.0069 10.0549 50.2144 10.8 50.6296 11.4926C51.0655 12.1852 51.8439 13.0247 52.9649 14.0111C54.3972 15.2704 55.3832 16.4142 55.9229 17.4426C56.4626 18.471 56.7324 19.6778 56.7324 21.063C56.7324 22.8679 56.2862 24.2531 55.3936 25.2185C54.5217 26.184 53.2451 26.6667 51.5637 26.6667Z" fill="black"/>
<path d="M58.6963 4.31481H62.1213V13.287H65.7955V4.31481H69.2206V26.3519H65.7955V16.4352H62.1213V26.3519H58.6963V4.31481Z" fill="black"/>
<path d="M76.7221 26.6667C75.0407 26.6667 73.7537 26.184 72.8611 25.2185C71.9685 24.2531 71.5223 22.8889 71.5223 21.1259V9.54074C71.5223 7.77778 71.9685 6.41358 72.8611 5.44815C73.7537 4.48272 75.0407 4 76.7221 4C78.4035 4 79.6905 4.48272 80.5831 5.44815C81.4757 6.41358 81.922 7.77778 81.922 9.54074V21.1259C81.922 22.8889 81.4757 24.2531 80.5831 25.2185C79.6905 26.184 78.4035 26.6667 76.7221 26.6667ZM76.7221 23.5185C77.9053 23.5185 78.4969 22.7944 78.4969 21.3463V9.32037C78.4969 7.87222 77.9053 7.14815 76.7221 7.14815C75.5389 7.14815 74.9473 7.87222 74.9473 9.32037V21.3463C74.9473 22.7944 75.5389 23.5185 76.7221 23.5185Z" fill="black"/>
<path d="M84.2383 4.31481H89.2825C90.9846 4.31481 92.2612 4.77654 93.1123 5.7C93.9634 6.62346 94.3889 7.97716 94.3889 9.76111V11.9333C94.3889 13.7173 93.9634 15.071 93.1123 15.9944C92.2612 16.9179 90.9846 17.3796 89.2825 17.3796H87.6633V26.3519H84.2383V4.31481ZM89.2825 14.2315C89.8429 14.2315 90.2581 14.0741 90.528 13.7593C90.8186 13.4444 90.9639 12.9093 90.9639 12.1537V9.54074C90.9639 8.78518 90.8186 8.25 90.528 7.93518C90.2581 7.62037 89.8429 7.46296 89.2825 7.46296H87.6633V14.2315H89.2825Z" fill="black"/>
<path d="M96.2491 4.31481H99.6742V13.6019L104.033 4.31481H107.458L103.379 12.4056L107.521 26.3519H103.94L101.044 16.5296L99.6742 19.3315V26.3519H96.2491V4.31481Z" fill="black"/>
<path d="M112.287 16.9704L108.145 4.31481H111.788L114.124 12.4056H114.186L116.521 4.31481H119.853L115.712 16.9704V26.3519H112.287V16.9704Z" fill="black"/>
<path d="M3.34802 3.92493C3.67324 1.67282 5.62293 0 7.92257 0H27.633C29.9326 0 31.8823 1.67282 32.2075 3.92493L35.5082 26.7821C35.9059 29.5361 33.7458 32 30.9337 32H4.62186C1.80976 32 -0.35038 29.5361 0.0473115 26.7821L3.34802 3.92493Z" fill="#85C851"/>
<path d="M9.77734 5.33325V12.6599C9.77734 14.4887 10.6202 16.2426 12.1205 17.5358C13.6208 18.829 15.6556 19.5555 17.7773 19.5555C19.8991 19.5555 21.9339 18.829 23.4342 17.5358C24.9345 16.2426 25.7773 14.4887 25.7773 12.6599V5.33325" stroke="white" stroke-width="2" stroke-linecap="round"/>
</svg>
