<svg width="82" height="82" viewBox="0 0 82 82" fill="none" xmlns="http://www.w3.org/2000/svg">
<g id="sony-2">
<g id="Group">
<path id="Vector" fill-rule="evenodd" clip-rule="evenodd" d="M79.571 45.2844C79.4098 45.2814 79.2496 45.3105 79.0998 45.3701C78.9499 45.4297 78.8135 45.5186 78.6984 45.6316C78.5833 45.7445 78.4919 45.8793 78.4295 46.028C78.3671 46.1766 78.335 46.3363 78.335 46.4975C78.335 46.6588 78.3671 46.8184 78.4295 46.9671C78.4919 47.1158 78.5833 47.2505 78.6984 47.3635C78.8135 47.4764 78.9499 47.5653 79.0998 47.6249C79.2496 47.6845 79.4098 47.7137 79.571 47.7106C79.7304 47.7105 79.8881 47.6789 80.0352 47.6176C80.1823 47.5564 80.3159 47.4667 80.4283 47.3538C80.5407 47.2408 80.6297 47.1068 80.6902 46.9594C80.7507 46.812 80.7816 46.6541 80.781 46.4948C80.781 46.3358 80.7498 46.1784 80.689 46.0316C80.6282 45.8848 80.5391 45.7513 80.4267 45.6389C80.3144 45.5265 80.181 45.4374 80.0341 45.3765C79.8873 45.3157 79.73 45.2844 79.571 45.2844ZM79.571 47.5647C79.4306 47.5649 79.2915 47.5373 79.1618 47.4836C79.0321 47.4298 78.9143 47.351 78.8151 47.2515C78.716 47.1521 78.6374 47.0341 78.5841 46.9042C78.5307 46.7743 78.5035 46.6352 78.504 46.4948C78.5041 46.3548 78.5317 46.2162 78.5854 46.0869C78.6391 45.9577 78.7177 45.8403 78.8169 45.7415C78.916 45.6426 79.0336 45.5643 79.163 45.511C79.2924 45.4577 79.4311 45.4304 79.571 45.4307C79.7107 45.4307 79.8491 45.4583 79.9781 45.5117C80.1072 45.5652 80.2245 45.6436 80.3232 45.7424C80.422 45.8412 80.5003 45.9585 80.5538 46.0876C80.6072 46.2167 80.6347 46.355 80.6346 46.4948C80.6353 46.6349 80.6083 46.7738 80.5551 46.9035C80.502 47.0332 80.4238 47.1512 80.325 47.2506C80.2262 47.35 80.1087 47.4289 79.9793 47.4828C79.8499 47.5367 79.7112 47.5646 79.571 47.5647Z" fill="#EFF0F3"/>
<path id="Vector_2" fill-rule="evenodd" clip-rule="evenodd" d="M80.1934 46.1767C80.1934 46.0622 80.1427 45.9418 80.0415 45.8844C79.9394 45.824 79.8254 45.818 79.7109 45.818H79.12V47.1739H79.2855V46.5485H79.5905L79.9777 47.1739H80.1746L79.7649 46.5485C80.0066 46.5417 80.1934 46.4434 80.1934 46.1767ZM79.5395 46.4179H79.2851V45.9384H79.6722C79.8407 45.9384 80.0253 45.964 80.0253 46.1737C80.0257 46.4498 79.7296 46.4179 79.5395 46.4179ZM72.4598 39.6216L74.9401 36.9733C75.0839 36.7788 75.1554 36.6427 75.1554 36.5261C75.1554 36.3317 74.9882 36.2538 74.4623 36.2538H73.8365V34.5819H80.6103V36.2538H79.7203C78.6924 36.2538 78.5014 36.4091 77.0673 38.2172L73.1435 42.4546V45.0403C73.1435 45.7019 73.4774 45.9346 74.4338 45.9346H75.9152V47.5479H66.4276V45.9346H67.9089C68.8645 45.9346 69.1993 45.7019 69.1993 45.0403V42.4546L64.5778 37.3421C63.8141 36.4483 63.9196 36.2538 61.7933 36.2538V34.5819H70.3735V36.2538H69.7625C69.141 36.2538 68.8776 36.3704 68.8776 36.6036C68.8776 36.7984 69.0687 36.9537 69.1882 37.109L71.5264 39.6573C71.8042 39.9462 72.1433 39.9836 72.4598 39.6216ZM14.8912 34.5815H16.961V39.2468H15.0495C14.8802 38.3142 14.2965 37.9513 13.7643 37.4621C12.8041 36.5797 10.7245 35.845 8.97557 35.845C6.71822 35.845 4.81312 36.5453 4.81312 37.5748C4.81312 40.4329 17.7229 38.1585 17.7229 43.5624C17.7229 46.3809 14.9576 47.9554 9.99151 47.9554C8.27233 47.9554 5.67079 47.4219 4.13583 46.6068C3.65466 46.329 3.45045 46.8697 3.36026 47.5474H1.23819V42.7264H3.15775C3.58106 43.9512 4.16433 44.2035 4.7008 44.6898C5.63165 45.5453 7.84732 46.1678 9.8792 46.1478C12.9428 46.1175 13.9961 45.4479 13.9961 44.4758C13.9961 43.5041 12.9542 43.2705 9.59713 42.746L6.74672 42.2793C3.53001 41.793 1.18799 41.074 1.18799 38.5082C1.18799 35.845 4.15072 34.173 8.83518 34.173C10.8092 34.173 12.4607 34.4368 14.0459 35.3328C14.485 35.6182 14.8968 35.6523 14.8912 34.5815ZM55.2837 42.3924L55.3246 37.2072C55.3246 36.527 54.9706 36.2938 53.9593 36.2938H52.7711V34.6806H60.3311V36.2938H59.3458C58.3337 36.2938 57.9797 36.5274 57.9797 37.2072V47.6461L55.0208 47.6227L45.4383 38.5486V45.1386C45.4383 45.7997 45.7923 46.052 46.8035 46.052H48.119V47.6461H40.2676V46.052H41.5686C42.5798 46.052 42.9338 45.7993 42.9338 45.1386V37.2072C42.9338 36.527 42.5798 36.2938 41.5686 36.2938H40.2676V34.6806H47.0558L55.2837 42.3924ZM29.9606 34.0752C23.9356 34.0752 20.1641 36.7388 20.1641 41.0149C20.1641 45.2144 23.8832 47.8576 29.7768 47.8576C36.0366 47.8576 39.6779 45.2531 39.6779 40.8013C39.6784 36.7971 35.749 34.0752 29.9606 34.0752ZM29.8236 46.1669C26.4886 46.1669 24.5716 44.2422 24.5716 40.9179C24.5716 37.6718 26.572 35.7472 29.9904 35.7472C33.2696 35.7472 35.1866 37.711 35.1866 41.0545C35.1866 44.3201 33.2415 46.1669 29.8236 46.1669Z" fill="#EFF0F3"/>
</g>
</g>
</svg>
