<svg width="83" height="82" viewBox="0 0 83 82" fill="none" xmlns="http://www.w3.org/2000/svg">
<g id="sony-2">
<g id="Group">
<path id="Vector" fill-rule="evenodd" clip-rule="evenodd" d="M80.3711 45.2844C80.2099 45.2814 80.0496 45.3105 79.8998 45.3701C79.75 45.4297 79.6135 45.5186 79.4985 45.6316C79.3834 45.7445 79.292 45.8793 79.2296 46.028C79.1672 46.1766 79.135 46.3363 79.135 46.4975C79.135 46.6588 79.1672 46.8184 79.2296 46.9671C79.292 47.1158 79.3834 47.2505 79.4985 47.3635C79.6135 47.4764 79.75 47.5653 79.8998 47.6249C80.0496 47.6845 80.2099 47.7137 80.3711 47.7106C80.5304 47.7105 80.6882 47.6789 80.8353 47.6176C80.9824 47.5564 81.116 47.4667 81.2284 47.3538C81.3408 47.2408 81.4298 47.1068 81.4903 46.9594C81.5508 46.812 81.5816 46.6541 81.581 46.4948C81.5811 46.3358 81.5498 46.1784 81.489 46.0316C81.4282 45.8848 81.3391 45.7513 81.2268 45.6389C81.1144 45.5265 80.981 45.4374 80.8342 45.3765C80.6874 45.3157 80.53 45.2844 80.3711 45.2844ZM80.3711 47.5647C80.2307 47.5649 80.0916 47.5373 79.9619 47.4836C79.8321 47.4298 79.7143 47.351 79.6152 47.2515C79.516 47.1521 79.4375 47.0341 79.3841 46.9042C79.3307 46.7743 79.3035 46.6352 79.3041 46.4948C79.3041 46.3548 79.3318 46.2162 79.3855 46.0869C79.4391 45.9577 79.5178 45.8403 79.6169 45.7415C79.716 45.6426 79.8336 45.5643 79.963 45.511C80.0925 45.4577 80.2311 45.4304 80.3711 45.4307C80.5108 45.4307 80.6491 45.4583 80.7782 45.5117C80.9073 45.5652 81.0245 45.6436 81.1233 45.7424C81.2221 45.8412 81.3004 45.9585 81.3538 46.0876C81.4072 46.2167 81.4347 46.355 81.4347 46.4948C81.4353 46.6349 81.4083 46.7738 81.3552 46.9035C81.3021 47.0332 81.2238 47.1512 81.125 47.2506C81.0262 47.35 80.9088 47.4289 80.7794 47.4828C80.65 47.5367 80.5112 47.5646 80.3711 47.5647Z" fill="black"/>
<path id="Vector_2" fill-rule="evenodd" clip-rule="evenodd" d="M80.9937 46.1767C80.9937 46.0622 80.943 45.9418 80.8418 45.8844C80.7397 45.824 80.6256 45.818 80.5112 45.818H79.9203V47.1739H80.0858V46.5485H80.3908L80.778 47.1739H80.9749L80.5652 46.5485C80.8069 46.5417 80.9937 46.4434 80.9937 46.1767ZM80.3398 46.4179H80.0854V45.9384H80.4725C80.641 45.9384 80.8256 45.964 80.8256 46.1737C80.826 46.4498 80.5299 46.4179 80.3398 46.4179ZM73.2601 39.6216L75.7404 36.9733C75.8842 36.7788 75.9557 36.6427 75.9557 36.5261C75.9557 36.3317 75.7885 36.2538 75.2626 36.2538H74.6368V34.5819H81.4106V36.2538H80.5206C79.4927 36.2538 79.3017 36.4091 77.8676 38.2172L73.9438 42.4546V45.0403C73.9438 45.7019 74.2777 45.9346 75.2341 45.9346H76.7155V47.5479H67.2279V45.9346H68.7092C69.6647 45.9346 69.9996 45.7019 69.9996 45.0403V42.4546L65.3781 37.3421C64.6144 36.4483 64.7199 36.2538 62.5936 36.2538V34.5819H71.1738V36.2538H70.5628C69.9413 36.2538 69.6779 36.3704 69.6779 36.6036C69.6779 36.7984 69.869 36.9537 69.9885 37.109L72.3267 39.6573C72.6045 39.9462 72.9436 39.9836 73.2601 39.6216ZM15.6915 34.5815H17.7613V39.2468H15.8498C15.6805 38.3142 15.0968 37.9513 14.5646 37.4621C13.6044 36.5797 11.5248 35.845 9.77587 35.845C7.51851 35.845 5.61341 36.5453 5.61341 37.5748C5.61341 40.4329 18.5232 38.1585 18.5232 43.5624C18.5232 46.3809 15.7579 47.9554 10.7918 47.9554C9.07262 47.9554 6.47109 47.4219 4.93612 46.6068C4.45495 46.329 4.25074 46.8697 4.16055 47.5474H2.03848V42.7264H3.95804C4.38135 43.9512 4.96462 44.2035 5.5011 44.6898C6.43195 45.5453 8.64761 46.1678 10.6795 46.1478C13.743 46.1175 14.7964 45.4479 14.7964 44.4758C14.7964 43.5041 13.7545 43.2705 10.3974 42.746L7.54701 42.2793C4.3303 41.793 1.98828 41.074 1.98828 38.5082C1.98828 35.845 4.95101 34.173 9.63547 34.173C11.6095 34.173 13.261 34.4368 14.8462 35.3328C15.2852 35.6182 15.6971 35.6523 15.6915 34.5815ZM56.084 42.3924L56.1249 37.2072C56.1249 36.527 55.7709 36.2938 54.7596 36.2938H53.5714V34.6806H61.1314V36.2938H60.1461C59.134 36.2938 58.78 36.5274 58.78 37.2072V47.6461L55.8211 47.6227L46.2386 38.5486V45.1386C46.2386 45.7997 46.5926 46.052 47.6038 46.052H48.9193V47.6461H41.0679V46.052H42.3689C43.3801 46.052 43.7341 45.7993 43.7341 45.1386V37.2072C43.7341 36.527 43.3801 36.2938 42.3689 36.2938H41.0679V34.6806H47.8561L56.084 42.3924ZM30.7609 34.0752C24.7359 34.0752 20.9644 36.7388 20.9644 41.0149C20.9644 45.2144 24.6835 47.8576 30.5771 47.8576C36.8369 47.8576 40.4782 45.2531 40.4782 40.8013C40.4786 36.7971 36.5493 34.0752 30.7609 34.0752ZM30.6239 46.1669C27.2889 46.1669 25.3719 44.2422 25.3719 40.9179C25.3719 37.6718 27.3723 35.7472 30.7906 35.7472C34.0699 35.7472 35.9869 37.711 35.9869 41.0545C35.9869 44.3201 34.0418 46.1669 30.6239 46.1669Z" fill="black"/>
</g>
</g>
</svg>
