<svg width="82" height="56" viewBox="0 0 82 56" fill="none" xmlns="http://www.w3.org/2000/svg">
<g id="adidas-9" clip-path="url(#clip0_99_899)">
<path id="Vector" d="M75.7167 55.9503C71.8817 55.9503 69.6076 53.9688 69.4334 51.1152H73.1C73.1 52.0665 73.6221 53.3327 75.8908 53.4113C77.4631 53.4113 78.3331 52.4603 78.3331 51.7453C78.159 50.6364 76.7609 50.5577 75.3685 50.3154C73.7962 50.0852 72.5779 49.764 71.7019 49.3702C70.4836 48.7341 69.7814 47.3829 69.7814 45.9591C69.7814 43.4201 71.8817 41.4386 75.5426 41.4386C79.0353 41.4386 81.3038 43.2628 81.4716 46.0378H77.9852C77.9852 45.3285 77.811 44.1352 75.7164 44.1352C74.3183 44.1352 73.4483 44.3714 73.2741 45.4014C73.2741 46.8315 76.2388 46.7525 78.5072 47.3039C80.6016 47.8614 81.9997 49.2065 81.9997 51.1152C81.9997 54.6052 79.2092 55.9503 75.7167 55.9503ZM8.8999 32.535L20.9383 25.4761L27.3954 36.6614H11.1683" fill="#EFF0F3"/>
<g id="Vector_2">
<path d="M34.2153 55.5297V41.4121V55.5297Z" fill="#EFF0F3"/>
<path d="M34.2153 55.5297V41.4121" stroke="#EFF0F3" stroke-width="4.94036"/>
</g>
<path id="Vector_3" d="M3.31288 48.6794C3.31288 50.8969 5.23309 52.7208 7.3214 52.7208C9.59586 52.7208 11.3362 50.8969 11.3362 48.6794C11.3362 46.5406 9.59586 44.638 7.3214 44.638C5.23309 44.638 3.31288 46.5406 3.31288 48.6794ZM7.14756 55.9746C3.3126 55.9746 0 52.7208 0 48.6794C0 44.638 3.31288 41.4632 7.14756 41.4632C8.71981 41.4632 10.1179 41.8631 11.3362 42.7293V41.6205H14.829V55.6534H11.3365V54.781C10.2923 55.5747 8.72008 55.9746 7.14783 55.9746H7.14756ZM53.7424 36.6581L36.9932 7.1625L49.0314 0.0249023L69.9695 36.6581H53.7424ZM19.3658 48.6794C19.3658 50.8969 21.1125 52.7208 23.3807 52.7208C25.469 52.7208 27.3955 50.8969 27.3955 48.6794C27.3955 46.5406 25.469 44.638 23.3807 44.638C21.1122 44.638 19.3658 46.5406 19.3658 48.6794ZM23.2065 55.9746C19.1917 55.9746 16.0532 52.7208 16.0532 48.6794C16.0532 44.638 19.1917 41.4632 23.2065 41.4632C24.7728 41.4632 26.1712 41.8631 27.3955 42.7293V36.7854H30.8822V55.6534H27.3952V54.781C26.1709 55.5747 24.7728 55.9746 23.2063 55.9746H23.2065ZM23.0346 19.9281L35.2469 12.9542L48.6837 36.6573H35.9434V40.1473H32.4564V36.6573L23.0346 19.9281ZM79.7376 40.2571C78.8615 40.2571 77.9915 39.4634 77.9915 38.5121C77.9915 37.5608 78.8615 36.7671 79.7376 36.7671C80.7817 36.7671 81.4842 37.5611 81.4842 38.5121C81.4842 39.4632 80.7817 40.2574 79.7376 40.2574V40.2571ZM79.7376 37.0097C78.8615 37.0097 78.3394 37.7184 78.3394 38.5121C78.3394 39.3058 78.8615 40.0209 79.7376 40.0209C80.6079 40.0209 81.13 39.3061 81.13 38.5121C81.13 37.7182 80.6079 37.0097 79.7376 37.0097Z" fill="#EFF0F3"/>
<path id="Vector_4" d="M80.0979 39.4698L79.7496 38.6761H79.4017V39.4698H79.1376V37.5672H79.9238C80.0979 37.5672 80.4458 37.8098 80.4458 38.1247C80.4458 38.4396 80.2717 38.5974 80.0979 38.6761L80.4458 39.4698H80.0979ZM79.7496 37.8098H79.4017V38.4399H79.7496C80.0979 38.4399 80.0979 38.3612 80.0979 38.1247C80.0979 37.9613 80.0979 37.8098 79.7496 37.8098ZM56.6932 48.6797C56.6932 50.8972 58.4398 52.7211 60.708 52.7211C62.8023 52.7211 64.7168 50.8972 64.7168 48.6797C64.7168 46.5409 62.8023 44.6383 60.708 44.6383C58.4395 44.6383 56.6932 46.5409 56.6932 48.6797ZM60.5281 55.9749C56.5193 55.9749 53.3806 52.7211 53.3806 48.6797C53.3806 44.6383 56.5193 41.4635 60.5279 41.4635C62.1004 41.4635 63.4985 41.8633 64.7168 42.7296V41.6208H68.0354V55.6537H64.7171V54.7813C63.4985 55.575 62.1004 55.9749 60.5279 55.9749H60.5281ZM40.6522 48.6797C40.6522 50.8972 42.5724 52.7211 44.6668 52.7211C46.9355 52.7211 48.6816 50.8972 48.6816 48.6797C48.6816 46.5409 46.9352 44.6383 44.6668 44.6383C42.5724 44.6383 40.6522 46.5409 40.6522 48.6797ZM48.6816 36.7856H52.1683V55.6537H48.6816V54.7813C47.6314 55.575 46.2333 55.9749 44.6668 55.9749C40.6522 55.9749 37.3394 52.7211 37.3394 48.6797C37.3394 44.6383 40.6522 41.4635 44.6668 41.4635C46.233 41.4635 47.6314 41.8633 48.6816 42.7296V36.7856Z" fill="#EFF0F3"/>
</g>
<defs>
<clipPath id="clip0_99_899">
<rect width="82" height="56" fill="white"/>
</clipPath>
</defs>
</svg>
