<svg width="82" height="44" viewBox="0 0 82 44" fill="none" xmlns="http://www.w3.org/2000/svg">
<g id="puma-logo">
<path id="Vector" d="M44.022 1.98984C43.7548 2.03113 43.4979 3.01689 42.9815 3.53041C42.6038 3.90103 42.1323 3.87784 41.8819 4.33603C41.7868 4.50721 41.8176 4.7994 41.7098 5.07995C41.4991 5.64104 40.7566 5.6912 40.7566 6.30256C40.754 6.96278 41.3758 7.08887 41.914 7.55731C42.3341 7.9344 42.3752 8.19435 42.8838 8.37707C43.3181 8.52515 43.9642 8.04118 44.5462 8.21495C45.0241 8.35785 45.4813 8.46076 45.5893 8.95239C45.6843 9.40541 45.5828 10.108 45.0035 10.027C44.8082 10.0051 43.9617 9.7194 42.9212 9.83007C41.6661 9.97297 40.2337 10.3834 40.0937 11.785C40.0166 12.5688 40.9839 13.4928 41.9179 13.3049C42.564 13.1774 42.2583 12.4144 42.6103 12.0437C43.0714 11.5689 45.6843 13.7013 48.1135 13.7013C49.1361 13.7013 49.8965 13.4427 50.6519 12.6499C50.7225 12.5894 50.8086 12.4594 50.9178 12.4516C51.0206 12.4594 51.2004 12.561 51.2595 12.6048C53.216 14.18 54.6945 17.3396 61.8845 17.3769C62.8954 17.382 64.0477 17.8659 64.988 18.7256C65.8269 19.503 66.3176 20.7113 66.7942 21.9378C67.5136 23.7783 68.8034 25.5684 70.7584 27.5606C70.8651 27.6674 72.4747 28.921 72.6031 29.0149C72.6237 29.0278 72.7419 29.3109 72.7009 29.4692C72.6533 30.6635 72.4799 34.137 75.0644 34.294C75.6965 34.3262 75.5307 33.8809 75.5307 33.5746C75.5295 32.9697 75.419 32.3687 75.7376 31.7497C76.173 30.8978 74.814 30.5052 74.8538 28.6635C74.882 27.2904 73.731 27.5245 73.1465 26.4783C72.81 25.8721 72.5107 25.5504 72.5325 24.809C72.6635 20.6368 71.6461 17.8955 71.1387 17.2225C70.7431 16.7141 70.4155 16.5121 70.7777 16.2765C72.9346 14.8493 73.424 13.5211 73.424 13.5211C74.5711 10.8198 75.6027 8.35259 77.0248 7.26651C77.3112 7.0425 78.046 6.49304 78.4969 6.27678C79.8239 5.65 80.5227 5.27043 80.9082 4.89454C81.5183 4.29871 82 3.05679 81.4155 2.30392C80.6884 1.3747 79.4308 2.11215 78.8759 2.44156C74.9103 4.7994 74.3258 8.95877 72.9525 11.3475C71.8568 13.256 70.0751 14.6575 68.4822 14.7721C67.2875 14.8608 66.0003 14.6189 64.7183 14.0552C61.6006 12.6859 59.8945 10.9176 59.4925 10.6049C58.6549 9.95755 52.1523 3.56256 46.8841 3.30132C46.8841 3.30132 46.2303 1.98993 46.0658 1.96804C45.6804 1.91908 45.2861 2.75177 45.0035 2.84839C44.7376 2.93707 44.2906 1.94614 44.022 1.98993V1.98984ZM20.8298 40.1575C20.334 40.1458 19.9127 39.7379 19.9127 39.2334L19.9139 22.7705H14.4981V40.918C14.4981 41.8073 15.2174 42.5332 16.0999 42.5332H25.5662C26.4551 42.5332 27.1655 41.8073 27.1655 40.918V22.7705H21.7548L21.7496 39.2334C21.7496 39.7379 21.3282 40.1458 20.8298 40.1575ZM38.9633 22.7705H30.7662C29.7964 22.7705 29.0063 23.5607 29.0063 24.5427V42.5331H34.4272V26.0305C34.4311 25.5247 34.8396 25.1245 35.3432 25.1245C35.8493 25.1245 36.2552 25.5157 36.2668 26.0164V42.5332H41.666V26.0162C41.6724 25.5156 42.0783 25.1244 42.5832 25.1244C43.0842 25.1244 43.4978 25.5247 43.5017 26.0304V42.5332H48.9227V24.5427C48.9227 23.5607 48.1314 22.7705 47.1615 22.7705H38.9633ZM7.25027 26.0652C7.25414 25.5156 6.80712 25.1244 6.33308 25.1244H5.41331V35.1202H6.33308C6.811 35.1202 7.25424 34.7393 7.25027 34.1924V26.0652ZM10.8844 37.5667H5.41331V42.5332H0V22.7705H10.9192C11.8967 22.7705 12.6597 23.5659 12.6597 24.5504V35.7869C12.6597 36.7728 11.8672 37.5667 10.8844 37.5667ZM67.4995 38.1137C66.4114 38.1137 65.498 39.0558 65.498 40.1974C65.498 41.3428 66.4114 42.2771 67.5341 42.2771C68.6479 42.2771 69.5497 41.3428 69.5497 40.1974C69.5497 39.0532 68.6479 38.1137 67.534 38.1137H67.4995ZM69.9376 40.1909C69.9376 41.5331 68.8637 42.6246 67.5341 42.6246C66.1904 42.6246 65.1114 41.541 65.1114 40.1909C65.1114 38.8666 66.1904 37.7598 67.4943 37.7598C68.8637 37.7598 69.9376 38.8332 69.9376 40.1909Z" fill="#EFF0F3"/>
<path id="Vector_2" d="M67.2837 40.0364C67.6601 40.0364 67.858 39.9026 67.858 39.635C67.858 39.3968 67.6666 39.2746 67.3004 39.2746H67.1925V40.0364H67.2837ZM68.6699 41.5988H68.0237L67.1925 40.4907V41.5988H66.6645V38.7971H67.2195C67.9736 38.7971 68.3743 39.0828 68.3743 39.6285C68.3743 39.9926 68.138 40.3158 67.8078 40.4122L67.7693 40.4265L68.6699 41.5988ZM58.0115 35.1241V26.024C57.9986 25.5208 57.594 25.1347 57.0892 25.1347C56.5894 25.1347 56.1757 25.5362 56.172 26.0382V35.1241H58.0115ZM58.0115 42.5332V37.5719H56.172V42.5332H50.7612V24.5427C50.7612 23.5607 51.5512 22.7705 52.5211 22.7705H61.6623C62.6348 22.7705 63.4248 23.5607 63.4248 24.5427V42.5331L58.0115 42.5332Z" fill="#EFF0F3"/>
</g>
</svg>
