<svg width="83" height="44" viewBox="0 0 83 44" fill="none" xmlns="http://www.w3.org/2000/svg">
<g id="puma-logo" clip-path="url(#clip0_98_717)">
<path id="Vector" d="M44.422 1.98984C44.1547 2.03113 43.8978 3.01689 43.3814 3.53041C43.0037 3.90103 42.5322 3.87784 42.2818 4.33603C42.1867 4.50721 42.2175 4.7994 42.1097 5.07995C41.899 5.64104 41.1565 5.6912 41.1565 6.30256C41.1539 6.96278 41.7757 7.08887 42.3139 7.55731C42.734 7.9344 42.7751 8.19435 43.2837 8.37707C43.718 8.52515 44.3641 8.04118 44.9461 8.21495C45.424 8.35785 45.8812 8.46076 45.9892 8.95239C46.0842 9.40541 45.9827 10.108 45.4034 10.027C45.2081 10.0051 44.3616 9.7194 43.3211 9.83007C42.066 9.97297 40.6336 10.3834 40.4936 11.785C40.4165 12.5688 41.3838 13.4928 42.3178 13.3049C42.9639 13.1774 42.6582 12.4144 43.0102 12.0437C43.4713 11.5689 46.0842 13.7013 48.5134 13.7013C49.536 13.7013 50.2964 13.4427 51.0518 12.6499C51.1224 12.5894 51.2085 12.4594 51.3177 12.4516C51.4205 12.4594 51.6003 12.561 51.6594 12.6048C53.6159 14.18 55.0944 17.3396 62.2844 17.3769C63.2953 17.382 64.4476 17.8659 65.3879 18.7256C66.2268 19.503 66.7175 20.7113 67.1941 21.9378C67.9135 23.7783 69.2033 25.5684 71.1583 27.5606C71.265 27.6674 72.8746 28.921 73.003 29.0149C73.0236 29.0278 73.1418 29.3109 73.1008 29.4692C73.0532 30.6635 72.8798 34.137 75.4643 34.294C76.0964 34.3262 75.9306 33.8809 75.9306 33.5746C75.9294 32.9697 75.8189 32.3687 76.1375 31.7497C76.5729 30.8978 75.2139 30.5052 75.2537 28.6635C75.2819 27.2904 74.1309 27.5245 73.5464 26.4783C73.2099 25.8721 72.9106 25.5504 72.9324 24.809C73.0634 20.6368 72.046 17.8955 71.5386 17.2225C71.143 16.7141 70.8154 16.5121 71.1776 16.2765C73.3345 14.8493 73.824 13.5211 73.824 13.5211C74.971 10.8198 76.0026 8.35259 77.4247 7.26651C77.7112 7.0425 78.4459 6.49304 78.8968 6.27678C80.2238 5.65 80.9226 5.27043 81.3081 4.89454C81.9182 4.29871 82.3999 3.05679 81.8154 2.30392C81.0883 1.3747 79.8307 2.11215 79.2758 2.44156C75.3102 4.7994 74.7257 8.95877 73.3524 11.3475C72.2567 13.256 70.475 14.6575 68.8821 14.7721C67.6874 14.8608 66.4002 14.6189 65.1182 14.0552C62.0005 12.6859 60.2944 10.9176 59.8924 10.6049C59.0548 9.95755 52.5522 3.56256 47.284 3.30132C47.284 3.30132 46.6302 1.98993 46.4657 1.96804C46.0803 1.91908 45.686 2.75177 45.4034 2.84839C45.1375 2.93707 44.6905 1.94614 44.422 1.98993V1.98984ZM21.2297 40.1575C20.7339 40.1458 20.3126 39.7379 20.3126 39.2334L20.3139 22.7705H14.898V40.918C14.898 41.8073 15.6173 42.5332 16.4998 42.5332H25.9661C26.855 42.5332 27.5654 41.8073 27.5654 40.918V22.7705H22.1547L22.1495 39.2334C22.1495 39.7379 21.7281 40.1458 21.2297 40.1575ZM39.3632 22.7705H31.1661C30.1963 22.7705 29.4062 23.5607 29.4062 24.5427V42.5331H34.8271V26.0305C34.831 25.5247 35.2395 25.1245 35.7431 25.1245C36.2492 25.1245 36.6551 25.5157 36.6667 26.0164V42.5332H42.0659V26.0162C42.0723 25.5156 42.4782 25.1244 42.9831 25.1244C43.4841 25.1244 43.8978 25.5247 43.9016 26.0304V42.5332H49.3226V24.5427C49.3226 23.5607 48.5313 22.7705 47.5614 22.7705H39.3632ZM7.65017 26.0652C7.65405 25.5156 7.20702 25.1244 6.73299 25.1244H5.81322V35.1202H6.73299C7.2109 35.1202 7.65414 34.7393 7.65017 34.1924V26.0652ZM11.2843 37.5667H5.81322V42.5332H0.399902V22.7705H11.3191C12.2966 22.7705 13.0596 23.5659 13.0596 24.5504V35.7869C13.0596 36.7728 12.2671 37.5667 11.2843 37.5667ZM67.8994 38.1137C66.8113 38.1137 65.8979 39.0558 65.8979 40.1974C65.8979 41.3428 66.8113 42.2771 67.934 42.2771C69.0478 42.2771 69.9496 41.3428 69.9496 40.1974C69.9496 39.0532 69.0478 38.1137 67.9339 38.1137H67.8994ZM70.3375 40.1909C70.3375 41.5331 69.2636 42.6246 67.934 42.6246C66.5903 42.6246 65.5113 41.541 65.5113 40.1909C65.5113 38.8666 66.5903 37.7598 67.8942 37.7598C69.2636 37.7598 70.3375 38.8332 70.3375 40.1909Z" fill="black"/>
<path id="Vector_2" d="M67.6834 40.0364C68.0598 40.0364 68.2576 39.9026 68.2576 39.635C68.2576 39.3968 68.0662 39.2746 67.7001 39.2746H67.5922V40.0364H67.6834ZM69.0695 41.5988H68.4233L67.5922 40.4907V41.5988H67.0642V38.7971H67.6192C68.3733 38.7971 68.774 39.0828 68.774 39.6285C68.774 39.9926 68.5377 40.3158 68.2075 40.4122L68.1689 40.4265L69.0695 41.5988ZM58.4112 35.1241V26.024C58.3983 25.5208 57.9936 25.1347 57.4888 25.1347C56.989 25.1347 56.5754 25.5362 56.5716 26.0382V35.1241H58.4112ZM58.4112 42.5332V37.5719H56.5716V42.5332H51.1609V24.5427C51.1609 23.5607 51.9508 22.7705 52.9208 22.7705H62.0619C63.0344 22.7705 63.8245 23.5607 63.8245 24.5427V42.5331L58.4112 42.5332Z" fill="black"/>
</g>
<defs>
<clipPath id="clip0_98_717">
<rect width="82" height="44" fill="white" transform="translate(0.399902)"/>
</clipPath>
</defs>
</svg>
