<svg width="71" height="74" viewBox="0 0 71 74" fill="none" xmlns="http://www.w3.org/2000/svg">
<g id="Logo">
<g id="Logo_2">
<g id="SHOPKY">
<path d="M13.4392 60.6864C12.307 60.6864 11.4507 60.3659 10.8704 59.7248C10.2901 59.0696 10 58.1365 10 56.9257V56.071H12.2079V57.0966C12.2079 58.0653 12.6113 58.5496 13.418 58.5496C13.8143 58.5496 14.1115 58.4357 14.3096 58.2077C14.5219 57.9656 14.6281 57.581 14.6281 57.0539C14.6281 56.4271 14.4866 55.8787 14.2035 55.4086C13.9204 54.9243 13.3968 54.3473 12.6325 53.6778C11.6701 52.8231 10.9978 52.0539 10.6157 51.3701C10.2335 50.6721 10.0425 49.8887 10.0425 49.0197C10.0425 47.8374 10.3397 46.9257 10.9341 46.2847C11.5285 45.6294 12.3919 45.3018 13.5241 45.3018C14.6422 45.3018 15.4843 45.6294 16.0505 46.2847C16.6308 46.9257 16.9209 47.8516 16.9209 49.0624V49.6821H14.713V48.9129C14.713 48.4 14.6139 48.0297 14.4158 47.8018C14.2176 47.5596 13.9275 47.4385 13.5454 47.4385C12.7669 47.4385 12.3777 47.9157 12.3777 48.8701C12.3777 49.4114 12.5193 49.9171 12.8023 50.3872C13.0995 50.8573 13.6303 51.4271 14.3946 52.0966C15.3711 52.9513 16.0434 53.7277 16.4114 54.4257C16.7794 55.1237 16.9634 55.9428 16.9634 56.883C16.9634 58.108 16.6591 59.0482 16.0505 59.7035C15.456 60.3587 14.5856 60.6864 13.4392 60.6864Z" fill="black"/>
<path d="M18.3023 45.5154H20.6376V51.6052H23.1427V45.5154H25.478V60.4727H23.1427V53.7419H20.6376V60.4727H18.3023V45.5154Z" fill="black"/>
<path d="M30.5927 60.6864C29.4463 60.6864 28.5688 60.3587 27.9602 59.7035C27.3516 59.0482 27.0473 58.1223 27.0473 56.9257V49.0624C27.0473 47.8659 27.3516 46.9399 27.9602 46.2847C28.5688 45.6294 29.4463 45.3018 30.5927 45.3018C31.7391 45.3018 32.6166 45.6294 33.2252 46.2847C33.8337 46.9399 34.138 47.8659 34.138 49.0624V56.9257C34.138 58.1223 33.8337 59.0482 33.2252 59.7035C32.6166 60.3587 31.7391 60.6864 30.5927 60.6864ZM30.5927 58.5496C31.3994 58.5496 31.8028 58.0582 31.8028 57.0753V48.9129C31.8028 47.93 31.3994 47.4385 30.5927 47.4385C29.7859 47.4385 29.3826 47.93 29.3826 48.9129V57.0753C29.3826 58.0582 29.7859 58.5496 30.5927 58.5496Z" fill="black"/>
<path d="M35.7173 45.5154H39.1565C40.3171 45.5154 41.1875 45.8288 41.7678 46.4556C42.3481 47.0824 42.6382 48.0012 42.6382 49.212V50.6864C42.6382 51.8972 42.3481 52.816 41.7678 53.4428C41.1875 54.0696 40.3171 54.383 39.1565 54.383H38.0526V60.4727H35.7173V45.5154ZM39.1565 52.2462C39.5387 52.2462 39.8217 52.1394 40.0057 51.9257C40.2039 51.712 40.303 51.3488 40.303 50.8359V49.0624C40.303 48.5496 40.2039 48.1864 40.0057 47.9727C39.8217 47.759 39.5387 47.6522 39.1565 47.6522H38.0526V52.2462H39.1565Z" fill="black"/>
<path d="M43.9065 45.5154H46.2418V51.8189L49.214 45.5154H51.5492L48.7681 51.0069L51.5917 60.4727H49.1503L47.1759 53.806L46.2418 55.7077V60.4727H43.9065V45.5154Z" fill="black"/>
<path d="M54.8412 54.1052L52.0176 45.5154H54.5015L56.0937 51.0069H56.1362L57.7284 45.5154H60L57.1764 54.1052V60.4727H54.8412V54.1052Z" fill="black"/>
</g>
<g id="Group 1">
<path id="Rectangle 1" d="M23.4822 16.0184C23.7323 14.2865 25.2317 13 27.0003 13H42.1584C43.9269 13 45.4263 14.2865 45.6764 16.0184L48.2148 33.5966C48.5207 35.7145 46.8594 37.6094 44.6968 37.6094H24.4619C22.2993 37.6094 20.638 35.7145 20.9439 33.5966L23.4822 16.0184Z" fill="#85C851"/>
<path id="Ellipse 1" d="M28.427 17.1016V22.736C28.427 24.1425 29.0752 25.4913 30.229 26.4858C31.3828 27.4804 32.9476 28.0391 34.5793 28.0391C36.211 28.0391 37.7759 27.4804 38.9297 26.4858C40.0835 25.4913 40.7317 24.1425 40.7317 22.736V17.1016" stroke="white" stroke-width="1.44231" stroke-linecap="round"/>
</g>
</g>
</g>
</svg>
