<svg width="80" height="80" viewBox="0 0 80 80" fill="none" xmlns="http://www.w3.org/2000/svg">
<circle cx="40" cy="40" r="39.5" fill="#1E2238" fill-opacity="0.32" stroke="#EFF0F3"/>
<path d="M16.8196 42.4229C16.7066 42.0661 16.4846 41.8155 16.1538 41.6711C15.8258 41.5261 15.4321 41.5002 14.9727 41.5936C14.6498 41.6591 14.3826 41.7641 14.1713 41.9085C13.9601 42.0529 13.8101 42.221 13.7216 42.413C13.633 42.6049 13.6091 42.8083 13.6499 43.0233C13.6861 43.2014 13.7578 43.3478 13.8651 43.4622C13.9752 43.5761 14.1106 43.6646 14.2712 43.7276C14.4313 43.7878 14.6039 43.8311 14.7889 43.8572C14.974 43.8834 15.1585 43.8996 15.3423 43.9057L16.1849 43.9433C16.5231 43.9529 16.8542 43.9915 17.1781 44.059C17.5047 44.126 17.8062 44.2329 18.0824 44.3797C18.3615 44.526 18.5986 44.7228 18.7937 44.9701C18.9889 45.2175 19.1241 45.5263 19.1993 45.8966C19.3011 46.3977 19.2627 46.865 19.084 47.2984C18.9048 47.7291 18.5948 48.1008 18.1539 48.4136C17.7152 48.723 17.1534 48.9472 16.4686 49.0864C15.8032 49.2215 15.2046 49.2358 14.6727 49.1294C14.1437 49.0223 13.7012 48.7991 13.3453 48.4597C12.9921 48.1198 12.7467 47.6682 12.6091 47.1047L14.1334 46.7951C14.2161 47.0885 14.3583 47.3176 14.56 47.4825C14.7616 47.6473 15.0018 47.7522 15.2805 47.7971C15.562 47.8413 15.8642 47.8307 16.1871 47.7651C16.524 47.6967 16.8089 47.5866 17.0419 47.4349C17.2771 47.2799 17.4488 47.0972 17.5568 46.8868C17.6642 46.6737 17.6945 46.4443 17.6475 46.1987C17.5994 45.9766 17.4967 45.8061 17.3392 45.6874C17.1812 45.5658 16.9767 45.4798 16.7259 45.4293C16.4772 45.3754 16.1918 45.3406 15.8698 45.3249L14.8458 45.272C14.1047 45.2341 13.4922 45.0729 13.0083 44.7886C12.5266 44.5009 12.2236 44.0508 12.0992 43.4383C11.9968 42.9343 12.0436 42.4654 12.2395 42.0313C12.4382 41.5967 12.753 41.2269 13.1839 40.922C13.6142 40.6143 14.1287 40.3996 14.7272 40.278C15.3342 40.1547 15.8874 40.1525 16.387 40.2714C16.8887 40.3869 17.3084 40.6046 17.6459 40.9245C17.9828 41.2416 18.2043 41.6401 18.3105 42.1201L16.8196 42.4229ZM21.5146 44.013L22.2781 47.7715L20.7663 48.0786L19.0291 39.526L20.5074 39.2257L21.1631 42.4538L21.2383 42.4385C21.3151 42.0461 21.4896 41.7135 21.7618 41.4408C22.0362 41.1647 22.4184 40.9769 22.9084 40.8774C23.3539 40.7869 23.7612 40.8013 24.1304 40.9205C24.4996 41.0398 24.8111 41.2606 25.065 41.583C25.3217 41.9048 25.5027 42.3246 25.6078 42.8425L26.4374 46.9267L24.9257 47.2337L24.1436 43.3834C24.056 42.9519 23.8764 42.639 23.6051 42.4448C23.3359 42.2473 23.0023 42.1889 22.6042 42.2698C22.3369 42.3241 22.1094 42.4312 21.9215 42.5911C21.7359 42.7477 21.6053 42.9467 21.5297 43.1881C21.4569 43.429 21.4519 43.704 21.5146 44.013ZM30.5666 46.2184C29.9402 46.3456 29.3693 46.3181 28.854 46.1358C28.3386 45.9535 27.904 45.6402 27.5499 45.1961C27.1987 44.7515 26.9558 44.1978 26.8212 43.5352C26.6866 42.8726 26.694 42.2667 26.8433 41.7175C26.9955 41.1677 27.2732 40.7083 27.6766 40.3394C28.08 39.9704 28.5949 39.7223 29.2213 39.5951C29.8477 39.4679 30.4186 39.4954 30.934 39.6777C31.4493 39.86 31.8829 40.1749 32.2347 40.6224C32.5892 41.0693 32.8338 41.624 32.9684 42.2866C33.103 42.9492 33.094 43.554 32.9413 44.101C32.7914 44.6475 32.5147 45.1052 32.1113 45.4741C31.708 45.8431 31.1931 46.0911 30.5666 46.2184ZM30.329 45.0056C30.6687 44.9366 30.9337 44.7857 31.1241 44.5528C31.3139 44.3171 31.4323 44.0292 31.4792 43.6892C31.5289 43.3487 31.5141 42.9835 31.4349 42.5937C31.3552 42.2012 31.226 41.8578 31.0474 41.5636C30.871 41.2661 30.6495 41.0458 30.3827 40.9029C30.116 40.7599 29.8128 40.723 29.4731 40.7919C29.1251 40.8626 28.8548 41.0161 28.6622 41.2524C28.4723 41.488 28.3529 41.7776 28.3037 42.1209C28.2568 42.4609 28.2733 42.8272 28.353 43.2198C28.4322 43.6095 28.5597 43.9518 28.7355 44.2465C28.9141 44.5407 29.1368 44.7593 29.4035 44.9023C29.6725 45.0419 29.981 45.0763 30.329 45.0056ZM35.1513 47.6614L33.3598 38.8415L34.8465 38.5395L35.0619 39.6002L35.1496 39.5824C35.1959 39.4107 35.2722 39.2227 35.3786 39.0184C35.4844 38.8114 35.6457 38.6207 35.8624 38.4462C36.0786 38.2689 36.3746 38.1421 36.7505 38.0658C37.2461 37.9651 37.7186 38.001 38.1682 38.1735C38.62 38.3426 39.0129 38.6498 39.3468 39.0951C39.683 39.537 39.9235 40.1144 40.0683 40.8271C40.2113 41.5314 40.2174 42.1535 40.0864 42.6932C39.9554 43.2329 39.7172 43.6727 39.3716 44.0124C39.0261 44.3522 38.6014 44.5733 38.0975 44.6757C37.73 44.7503 37.4127 44.751 37.1456 44.6777C36.8785 44.6044 36.6536 44.4964 36.471 44.3538C36.2906 44.2078 36.1442 44.065 36.0318 43.9255L35.9692 43.9382L36.663 47.3543L35.1513 47.6614ZM35.4937 41.7476C35.578 42.1624 35.7103 42.5138 35.8905 42.8019C36.0736 43.0894 36.2943 43.2982 36.5526 43.4284C36.8132 43.5552 37.1036 43.5861 37.4237 43.521C37.7578 43.4532 38.0195 43.3073 38.2088 43.0833C38.3976 42.8565 38.5174 42.5756 38.5682 42.2406C38.6212 41.9023 38.607 41.5326 38.5256 41.1317C38.4447 40.7336 38.3158 40.3916 38.1389 40.1058C37.962 39.8199 37.743 39.6122 37.4818 39.4826C37.2207 39.353 36.9217 39.3225 36.5848 39.3909C36.2619 39.4565 36.0049 39.5971 35.8139 39.8127C35.6229 40.0284 35.5 40.3012 35.4453 40.6312C35.3933 40.9606 35.4095 41.3327 35.4937 41.7476ZM49.8171 33.2722L51.5544 41.8249L50.1763 42.1048L44.963 37.0977L44.892 37.1121L46.0753 42.9378L44.526 43.2525L42.7888 34.6998L44.1753 34.4182L49.3852 39.4303L49.4603 39.4151L48.2762 33.5852L49.8171 33.2722ZM55.764 41.1002C55.1376 41.2275 54.5667 41.1999 54.0513 41.0176C53.536 40.8353 53.1013 40.5221 52.7473 40.078C52.396 39.6333 52.1531 39.0797 52.0186 38.4171C51.884 37.7545 51.8913 37.1486 52.0407 36.5993C52.1928 36.0495 52.4706 35.5902 52.8739 35.2212C53.2773 34.8523 53.7922 34.6042 54.4186 34.477C55.045 34.3497 55.6159 34.3773 56.1313 34.5596C56.6466 34.7419 57.0802 35.0568 57.432 35.5042C57.7866 35.9511 58.0312 36.5059 58.1657 37.1685C58.3003 37.8311 58.2913 38.4359 58.1386 38.9829C57.9887 39.5294 57.712 39.9871 57.3087 40.356C56.9053 40.7249 56.3904 40.973 55.764 41.1002ZM55.5263 39.8875C55.866 39.8185 56.131 39.6675 56.3214 39.4346C56.5113 39.199 56.6296 38.9111 56.6765 38.5711C56.7262 38.2305 56.7114 37.8654 56.6323 37.4756C56.5525 37.083 56.4234 36.7397 56.2448 36.4455C56.0684 36.1479 55.8468 35.9277 55.58 35.7847C55.3133 35.6418 55.0101 35.6048 54.6704 35.6738C54.3224 35.7445 54.0521 35.898 53.8595 36.1342C53.6697 36.3699 53.5502 36.6594 53.5011 37.0028C53.4542 37.3428 53.4706 37.7091 53.5503 38.1016C53.6295 38.4914 53.757 38.8336 53.9328 39.1284C54.1114 39.4226 54.3341 39.6412 54.6009 39.7841C54.8698 39.9237 55.1783 39.9582 55.5263 39.8875ZM61.0001 39.9062L57.8848 33.8599L59.4257 33.5469L61.4694 37.828L61.5279 37.8162L61.7643 33.0719L63.2886 32.7623L65.3522 37.0132L65.4149 37.0005L65.6147 32.2898L67.1598 31.9759L66.6462 38.7594L65.0718 39.0792L62.9886 34.9887L62.9009 35.0065L62.5787 39.5856L61.0001 39.9062Z" fill="#EFF0F3"/>
</svg>
